<mxfile host="app.diagrams.net" agent="Mozilla/5.0 (Macintosh; Intel Mac OS X 10_15_7) AppleWebKit/537.36 (KHTML, like Gecko) Chrome/126.0.0.0 YaBrowser/24.7.0.0 Safari/537.36" version="24.7.16">
  <diagram name="Page-1" id="-H_mtQnk-PTXWXPvYvuk">
    <mxGraphModel dx="3209" dy="2208" grid="1" gridSize="10" guides="1" tooltips="1" connect="1" arrows="1" fold="1" page="1" pageScale="1" pageWidth="1169" pageHeight="827" math="0" shadow="0">
      <root>
        <mxCell id="0" />
        <mxCell id="1" parent="0" />
        <mxCell id="r9DCWbLKnFNqtlC1Hvyg-7" style="edgeStyle=orthogonalEdgeStyle;rounded=0;orthogonalLoop=1;jettySize=auto;html=1;entryX=1;entryY=0.75;entryDx=0;entryDy=0;" edge="1" parent="1" source="r9DCWbLKnFNqtlC1Hvyg-3" target="r9DCWbLKnFNqtlC1Hvyg-5">
          <mxGeometry relative="1" as="geometry" />
        </mxCell>
        <mxCell id="r9DCWbLKnFNqtlC1Hvyg-8" value="Register servers" style="edgeLabel;html=1;align=center;verticalAlign=middle;resizable=0;points=[];" vertex="1" connectable="0" parent="r9DCWbLKnFNqtlC1Hvyg-7">
          <mxGeometry x="-0.1552" relative="1" as="geometry">
            <mxPoint as="offset" />
          </mxGeometry>
        </mxCell>
        <mxCell id="r9DCWbLKnFNqtlC1Hvyg-3" value="" style="rounded=0;whiteSpace=wrap;html=1;" vertex="1" parent="1">
          <mxGeometry x="270" y="380" width="200" height="170" as="geometry" />
        </mxCell>
        <mxCell id="_6_ejlqhK0-twmM20056-15" style="edgeStyle=orthogonalEdgeStyle;rounded=0;orthogonalLoop=1;jettySize=auto;html=1;" parent="1" source="_6_ejlqhK0-twmM20056-6" target="_6_ejlqhK0-twmM20056-8" edge="1">
          <mxGeometry relative="1" as="geometry" />
        </mxCell>
        <mxCell id="_6_ejlqhK0-twmM20056-6" value="" style="rounded=0;whiteSpace=wrap;html=1;" parent="1" vertex="1">
          <mxGeometry x="670" y="380" width="160" height="100" as="geometry" />
        </mxCell>
        <mxCell id="zA23MoTUsTF4_91t8viU-2" value="MongoDB-router2" style="shape=cylinder3;whiteSpace=wrap;html=1;boundedLbl=1;backgroundOutline=1;size=15;" parent="1" vertex="1">
          <mxGeometry x="760" y="386.5" width="60" height="80" as="geometry" />
        </mxCell>
        <mxCell id="_6_ejlqhK0-twmM20056-7" style="edgeStyle=orthogonalEdgeStyle;rounded=0;orthogonalLoop=1;jettySize=auto;html=1;entryX=0;entryY=0.5;entryDx=0;entryDy=0;" parent="1" target="_6_ejlqhK0-twmM20056-6" edge="1">
          <mxGeometry relative="1" as="geometry">
            <mxPoint x="470" y="430" as="sourcePoint" />
          </mxGeometry>
        </mxCell>
        <mxCell id="_6_ejlqhK0-twmM20056-31" style="edgeStyle=orthogonalEdgeStyle;rounded=0;orthogonalLoop=1;jettySize=auto;html=1;entryX=0.5;entryY=1;entryDx=0;entryDy=0;exitX=0.555;exitY=-0.014;exitDx=0;exitDy=0;exitPerimeter=0;" parent="1" source="r9DCWbLKnFNqtlC1Hvyg-3" target="_6_ejlqhK0-twmM20056-29" edge="1">
          <mxGeometry relative="1" as="geometry" />
        </mxCell>
        <mxCell id="zA23MoTUsTF4_91t8viU-3" value="pymongo-api" style="rounded=1;whiteSpace=wrap;html=1;" parent="1" vertex="1">
          <mxGeometry x="310" y="396.5" width="120" height="60" as="geometry" />
        </mxCell>
        <mxCell id="_6_ejlqhK0-twmM20056-8" value="" style="rounded=0;whiteSpace=wrap;html=1;" parent="1" vertex="1">
          <mxGeometry x="890" y="250" width="250" height="136.5" as="geometry" />
        </mxCell>
        <mxCell id="_6_ejlqhK0-twmM20056-9" value="MongoDB-shard1-master" style="shape=cylinder3;whiteSpace=wrap;html=1;boundedLbl=1;backgroundOutline=1;size=15;" parent="1" vertex="1">
          <mxGeometry x="900" y="270" width="70" height="98.25" as="geometry" />
        </mxCell>
        <mxCell id="_6_ejlqhK0-twmM20056-10" value="MongoDB-shard1-replica" style="shape=cylinder3;whiteSpace=wrap;html=1;boundedLbl=1;backgroundOutline=1;size=15;" parent="1" vertex="1">
          <mxGeometry x="980" y="270" width="70" height="98.25" as="geometry" />
        </mxCell>
        <mxCell id="_6_ejlqhK0-twmM20056-14" style="edgeStyle=orthogonalEdgeStyle;rounded=0;orthogonalLoop=1;jettySize=auto;html=1;entryX=0.008;entryY=0.4;entryDx=0;entryDy=0;entryPerimeter=0;" parent="1" source="_6_ejlqhK0-twmM20056-6" target="_6_ejlqhK0-twmM20056-18" edge="1">
          <mxGeometry relative="1" as="geometry">
            <mxPoint x="885.3799999999999" y="496.41899999999987" as="targetPoint" />
          </mxGeometry>
        </mxCell>
        <mxCell id="_6_ejlqhK0-twmM20056-16" value="MongoDB-shard1-replica2" style="shape=cylinder3;whiteSpace=wrap;html=1;boundedLbl=1;backgroundOutline=1;size=15;" parent="1" vertex="1">
          <mxGeometry x="1060" y="269.12" width="70" height="98.25" as="geometry" />
        </mxCell>
        <mxCell id="_6_ejlqhK0-twmM20056-18" value="" style="rounded=0;whiteSpace=wrap;html=1;" parent="1" vertex="1">
          <mxGeometry x="890" y="440" width="250" height="136.5" as="geometry" />
        </mxCell>
        <mxCell id="_6_ejlqhK0-twmM20056-19" value="MongoDB-shard2-master" style="shape=cylinder3;whiteSpace=wrap;html=1;boundedLbl=1;backgroundOutline=1;size=15;" parent="1" vertex="1">
          <mxGeometry x="900" y="460" width="70" height="98.25" as="geometry" />
        </mxCell>
        <mxCell id="_6_ejlqhK0-twmM20056-20" value="MongoDB-shard2-replica1" style="shape=cylinder3;whiteSpace=wrap;html=1;boundedLbl=1;backgroundOutline=1;size=15;" parent="1" vertex="1">
          <mxGeometry x="980" y="460" width="70" height="98.25" as="geometry" />
        </mxCell>
        <mxCell id="_6_ejlqhK0-twmM20056-21" value="MongoDB-shard2-replica2" style="shape=cylinder3;whiteSpace=wrap;html=1;boundedLbl=1;backgroundOutline=1;size=15;" parent="1" vertex="1">
          <mxGeometry x="1060" y="459.12" width="70" height="98.25" as="geometry" />
        </mxCell>
        <mxCell id="_6_ejlqhK0-twmM20056-24" value="" style="rounded=0;whiteSpace=wrap;html=1;" parent="1" vertex="1">
          <mxGeometry x="680" y="170" width="157.5" height="110" as="geometry" />
        </mxCell>
        <mxCell id="_6_ejlqhK0-twmM20056-27" value="MongoDB-configSrv2" style="shape=cylinder3;whiteSpace=wrap;html=1;boundedLbl=1;backgroundOutline=1;size=15;" parent="1" vertex="1">
          <mxGeometry x="760" y="185" width="60" height="80" as="geometry" />
        </mxCell>
        <mxCell id="_6_ejlqhK0-twmM20056-28" style="edgeStyle=orthogonalEdgeStyle;rounded=0;orthogonalLoop=1;jettySize=auto;html=1;entryX=0.461;entryY=1.018;entryDx=0;entryDy=0;entryPerimeter=0;" parent="1" source="_6_ejlqhK0-twmM20056-6" target="_6_ejlqhK0-twmM20056-24" edge="1">
          <mxGeometry relative="1" as="geometry">
            <Array as="points">
              <mxPoint x="753" y="360" />
              <mxPoint x="753" y="360" />
            </Array>
          </mxGeometry>
        </mxCell>
        <mxCell id="_6_ejlqhK0-twmM20056-29" value="" style="rounded=0;whiteSpace=wrap;html=1;" parent="1" vertex="1">
          <mxGeometry x="440" y="190" width="80" height="110" as="geometry" />
        </mxCell>
        <mxCell id="_6_ejlqhK0-twmM20056-30" value="redis-node" style="shape=cylinder3;whiteSpace=wrap;html=1;boundedLbl=1;backgroundOutline=1;size=15;" parent="1" vertex="1">
          <mxGeometry x="450" y="210" width="60" height="80" as="geometry" />
        </mxCell>
        <mxCell id="z2cUEVXid8ie_htt0Kcd-1" value="MongoDB-configSrv" style="shape=cylinder3;whiteSpace=wrap;html=1;boundedLbl=1;backgroundOutline=1;size=15;" parent="1" vertex="1">
          <mxGeometry x="690" y="185" width="60" height="80" as="geometry" />
        </mxCell>
        <mxCell id="z2cUEVXid8ie_htt0Kcd-2" value="MongoDB-router" style="shape=cylinder3;whiteSpace=wrap;html=1;boundedLbl=1;backgroundOutline=1;size=15;" parent="1" vertex="1">
          <mxGeometry x="690" y="386.5" width="60" height="80" as="geometry" />
        </mxCell>
        <mxCell id="r9DCWbLKnFNqtlC1Hvyg-9" style="edgeStyle=orthogonalEdgeStyle;rounded=0;orthogonalLoop=1;jettySize=auto;html=1;entryX=0;entryY=0.5;entryDx=0;entryDy=0;exitX=0.5;exitY=1;exitDx=0;exitDy=0;" edge="1" parent="1" source="r9DCWbLKnFNqtlC1Hvyg-1" target="r9DCWbLKnFNqtlC1Hvyg-5">
          <mxGeometry relative="1" as="geometry" />
        </mxCell>
        <mxCell id="r9DCWbLKnFNqtlC1Hvyg-10" value="Get servers" style="edgeLabel;html=1;align=center;verticalAlign=middle;resizable=0;points=[];" vertex="1" connectable="0" parent="r9DCWbLKnFNqtlC1Hvyg-9">
          <mxGeometry x="-0.3356" y="-1" relative="1" as="geometry">
            <mxPoint as="offset" />
          </mxGeometry>
        </mxCell>
        <mxCell id="r9DCWbLKnFNqtlC1Hvyg-11" style="edgeStyle=orthogonalEdgeStyle;rounded=0;orthogonalLoop=1;jettySize=auto;html=1;entryX=0;entryY=0.5;entryDx=0;entryDy=0;" edge="1" parent="1" source="r9DCWbLKnFNqtlC1Hvyg-1" target="r9DCWbLKnFNqtlC1Hvyg-3">
          <mxGeometry relative="1" as="geometry" />
        </mxCell>
        <mxCell id="r9DCWbLKnFNqtlC1Hvyg-1" value="APISIX Gateway" style="rounded=1;whiteSpace=wrap;html=1;" vertex="1" parent="1">
          <mxGeometry x="-30" y="435" width="120" height="60" as="geometry" />
        </mxCell>
        <mxCell id="r9DCWbLKnFNqtlC1Hvyg-4" value="pymongo-api" style="rounded=1;whiteSpace=wrap;html=1;" vertex="1" parent="1">
          <mxGeometry x="310" y="478.24" width="120" height="60" as="geometry" />
        </mxCell>
        <mxCell id="r9DCWbLKnFNqtlC1Hvyg-5" value="Consul" style="rounded=1;whiteSpace=wrap;html=1;" vertex="1" parent="1">
          <mxGeometry x="180" y="630" width="120" height="60" as="geometry" />
        </mxCell>
        <mxCell id="r9DCWbLKnFNqtlC1Hvyg-20" style="edgeStyle=orthogonalEdgeStyle;rounded=0;orthogonalLoop=1;jettySize=auto;html=1;entryX=0;entryY=0.5;entryDx=0;entryDy=0;" edge="1" parent="1" source="r9DCWbLKnFNqtlC1Hvyg-12" target="r9DCWbLKnFNqtlC1Hvyg-19">
          <mxGeometry relative="1" as="geometry" />
        </mxCell>
        <mxCell id="r9DCWbLKnFNqtlC1Hvyg-12" value="Client" style="shape=umlActor;verticalLabelPosition=bottom;verticalAlign=top;html=1;outlineConnect=0;" vertex="1" parent="1">
          <mxGeometry x="-370" y="435" width="30" height="60" as="geometry" />
        </mxCell>
        <mxCell id="r9DCWbLKnFNqtlC1Hvyg-17" value="CDN" style="ellipse;shape=cloud;whiteSpace=wrap;html=1;" vertex="1" parent="1">
          <mxGeometry x="-345" y="180" width="290" height="130" as="geometry" />
        </mxCell>
        <mxCell id="r9DCWbLKnFNqtlC1Hvyg-23" style="edgeStyle=orthogonalEdgeStyle;rounded=0;orthogonalLoop=1;jettySize=auto;html=1;entryX=0;entryY=0.5;entryDx=0;entryDy=0;" edge="1" parent="1" source="r9DCWbLKnFNqtlC1Hvyg-19" target="r9DCWbLKnFNqtlC1Hvyg-1">
          <mxGeometry relative="1" as="geometry" />
        </mxCell>
        <mxCell id="r9DCWbLKnFNqtlC1Hvyg-19" value="Frontend" style="rounded=1;whiteSpace=wrap;html=1;" vertex="1" parent="1">
          <mxGeometry x="-260" y="435" width="120" height="60" as="geometry" />
        </mxCell>
        <mxCell id="r9DCWbLKnFNqtlC1Hvyg-21" style="edgeStyle=orthogonalEdgeStyle;rounded=0;orthogonalLoop=1;jettySize=auto;html=1;entryX=0.501;entryY=0.955;entryDx=0;entryDy=0;entryPerimeter=0;" edge="1" parent="1" source="r9DCWbLKnFNqtlC1Hvyg-19" target="r9DCWbLKnFNqtlC1Hvyg-17">
          <mxGeometry relative="1" as="geometry" />
        </mxCell>
        <mxCell id="r9DCWbLKnFNqtlC1Hvyg-24" value="Static content" style="edgeLabel;html=1;align=center;verticalAlign=middle;resizable=0;points=[];" vertex="1" connectable="0" parent="r9DCWbLKnFNqtlC1Hvyg-21">
          <mxGeometry x="0.0668" y="-3" relative="1" as="geometry">
            <mxPoint as="offset" />
          </mxGeometry>
        </mxCell>
      </root>
    </mxGraphModel>
  </diagram>
</mxfile>
